HIERARCHY
ROOT Hips
{
  OFFSET 0.864854 99.1353 2.13189
  CHANNELS 6 Xposition Yposition Zposition Zrotation Xrotation Yrotation
  JOINT Spine
  {
    OFFSET 0 10.1816 0.1315
    CHANNELS 6 Xposition Yposition Zposition Zrotation Xrotation Yrotation
    JOINT Spine1
    {
      OFFSET 0 10.0835 -1.0008
      CHANNELS 6 Xposition Yposition Zposition Zrotation Xrotation Yrotation
      JOINT Spine2
      {
        OFFSET 0 9.1 -1.3734
        CHANNELS 6 Xposition Yposition Zposition Zrotation Xrotation Yrotation
        JOINT Neck
        {
          OFFSET 0 16.6717 -2.5162
          CHANNELS 6 Xposition Yposition Zposition Zrotation Xrotation Yrotation
          JOINT Head
          {
            OFFSET 0 9.6179 1.685
            CHANNELS 6 Xposition Yposition Zposition Zrotation Xrotation Yrotation
            JOINT HeadTop_End
            {
              OFFSET 0 17.8152 2.585
              CHANNELS 6 Xposition Yposition Zposition Zrotation Xrotation Yrotation
              End Site
              {
                OFFSET 0 0 0
              }
            }
            JOINT LeftEye
            {
              OFFSET 3.0676 6.4095 9.2836
              CHANNELS 6 Xposition Yposition Zposition Zrotation Xrotation Yrotation
              End Site
              {
                OFFSET 0 0 0
              }
            }
            JOINT RightEye
            {
              OFFSET -3.0676 6.4095 9.2835
              CHANNELS 6 Xposition Yposition Zposition Zrotation Xrotation Yrotation
              End Site
              {
                OFFSET 0 0 0
              }
            }
          }
        }
        JOINT LeftShoulder
        {
          OFFSET 4.5704 10.946 -2.628
          CHANNELS 6 Xposition Yposition Zposition Zrotation Xrotation Yrotation
          JOINT LeftArm
          {
            OFFSET 10.5924 -0.5246 -2.2321
            CHANNELS 6 Xposition Yposition Zposition Zrotation Xrotation Yrotation
            JOINT LeftForeArm
            {
              OFFSET 27.8415 -0.0001 0
              CHANNELS 6 Xposition Yposition Zposition Zrotation Xrotation Yrotation
              JOINT LeftHand
              {
                OFFSET 28.3288 0 0
                CHANNELS 6 Xposition Yposition Zposition Zrotation Xrotation Yrotation
                JOINT LeftHandThumb1
                {
                  OFFSET 2.4661 -1.575 2.6824
                  CHANNELS 6 Xposition Yposition Zposition Zrotation Xrotation Yrotation
                  JOINT LeftHandThumb2
                  {
                    OFFSET 3.2298 -1.8647 1.8647
                    CHANNELS 6 Xposition Yposition Zposition Zrotation Xrotation Yrotation
                    JOINT LeftHandThumb3
                    {
                      OFFSET 2.6526 -1.5315 1.5315
                      CHANNELS 6 Xposition Yposition Zposition Zrotation Xrotation Yrotation
                      End Site
                      {
                        OFFSET 1.9546 -1.1285 1.1285
                      }
                    }
                  }
                }
                JOINT LeftHandIndex1
                {
                  OFFSET 9.1093 -0.5171 2.2601
                  CHANNELS 6 Xposition Yposition Zposition Zrotation Xrotation Yrotation
                  JOINT LeftHandIndex2
                  {
                    OFFSET 3.6764 0 0
                    CHANNELS 6 Xposition Yposition Zposition Zrotation Xrotation Yrotation
                    JOINT LeftHandIndex3
                    {
                      OFFSET 2.8831 0 0
                      CHANNELS 6 Xposition Yposition Zposition Zrotation Xrotation Yrotation
                      End Site
                      {
                        OFFSET 2.3927 0 0
                      }
                    }
                  }
                }
                JOINT LeftHandMiddle1
                {
                  OFFSET 9.5334 0 0
                  CHANNELS 6 Xposition Yposition Zposition Zrotation Xrotation Yrotation
                  JOINT LeftHandMiddle2
                  {
                    OFFSET 3.6982 0 0
                    CHANNELS 6 Xposition Yposition Zposition Zrotation Xrotation Yrotation
                    JOINT LeftHandMiddle3
                    {
                      OFFSET 2.9509 0 0
                      CHANNELS 6 Xposition Yposition Zposition Zrotation Xrotation Yrotation
                      End Site
                      {
                        OFFSET 2.8339 0 0
                      }
                    }
                  }
                }
                JOINT LeftHandRing1
                {
                  OFFSET 9.1045 -0.0439 -1.8651
                  CHANNELS 6 Xposition Yposition Zposition Zrotation Xrotation Yrotation
                  JOINT LeftHandRing2
                  {
                    OFFSET 3.154 0 0
                    CHANNELS 6 Xposition Yposition Zposition Zrotation Xrotation Yrotation
                    JOINT LeftHandRing3
                    {
                      OFFSET 2.9377 0 0
                      CHANNELS 6 Xposition Yposition Zposition Zrotation Xrotation Yrotation
                      End Site
                      {
                        OFFSET 2.6475 0 0
                      }
                    }
                  }
                }
                JOINT LeftHandPinky1
                {
                  OFFSET 8.0778 -0.4887 -3.8061
                  CHANNELS 6 Xposition Yposition Zposition Zrotation Xrotation Yrotation
                  JOINT LeftHandPinky2
                  {
                    OFFSET 3.6 0 0
                    CHANNELS 6 Xposition Yposition Zposition Zrotation Xrotation Yrotation
                    JOINT LeftHandPinky3
                    {
                      OFFSET 2.1142 0 0
                      CHANNELS 6 Xposition Yposition Zposition Zrotation Xrotation Yrotation
                      End Site
                      {
                        OFFSET 1.9757 0 0
                      }
                    }
                  }
                }
              }
            }
          }
        }
        JOINT RightShoulder
        {
          OFFSET -4.57 10.9462 -2.628
          CHANNELS 6 Xposition Yposition Zposition Zrotation Xrotation Yrotation
          JOINT RightArm
          {
            OFFSET -10.5928 -0.5248 -2.2321
            CHANNELS 6 Xposition Yposition Zposition Zrotation Xrotation Yrotation
            JOINT RightForeArm
            {
              OFFSET -27.8415 0 0
              CHANNELS 6 Xposition Yposition Zposition Zrotation Xrotation Yrotation
              JOINT RightHand
              {
                OFFSET -28.3288 0 0.0001
                CHANNELS 6 Xposition Yposition Zposition Zrotation Xrotation Yrotation
                JOINT RightHandPinky1
                {
                  OFFSET -8.0767 -0.4885 -3.806
                  CHANNELS 6 Xposition Yposition Zposition Zrotation Xrotation Yrotation
                  JOINT RightHandPinky2
                  {
                    OFFSET -3.6 0 0.0001
                    CHANNELS 6 Xposition Yposition Zposition Zrotation Xrotation Yrotation
                    JOINT RightHandPinky3
                    {
                      OFFSET -2.1142 0 0
                      CHANNELS 6 Xposition Yposition Zposition Zrotation Xrotation Yrotation
                      End Site
                      {
                        OFFSET -1.9757 0 0
                      }
                    }
                  }
                }
                JOINT RightHandRing1
                {
                  OFFSET -9.1036 -0.0439 -1.8651
                  CHANNELS 6 Xposition Yposition Zposition Zrotation Xrotation Yrotation
                  JOINT RightHandRing2
                  {
                    OFFSET -3.154 0 0
                    CHANNELS 6 Xposition Yposition Zposition Zrotation Xrotation Yrotation
                    JOINT RightHandRing3
                    {
                      OFFSET -2.9377 0 0
                      CHANNELS 6 Xposition Yposition Zposition Zrotation Xrotation Yrotation
                      End Site
                      {
                        OFFSET -2.6475 0 0
                      }
                    }
                  }
                }
                JOINT RightHandMiddle1
                {
                  OFFSET -9.5325 0 0
                  CHANNELS 6 Xposition Yposition Zposition Zrotation Xrotation Yrotation
                  JOINT RightHandMiddle2
                  {
                    OFFSET -3.6982 0 0
                    CHANNELS 6 Xposition Yposition Zposition Zrotation Xrotation Yrotation
                    JOINT RightHandMiddle3
                    {
                      OFFSET -2.9509 0 0
                      CHANNELS 6 Xposition Yposition Zposition Zrotation Xrotation Yrotation
                      End Site
                      {
                        OFFSET -2.8339 0 0.0001
                      }
                    }
                  }
                }
                JOINT RightHandIndex1
                {
                  OFFSET -9.1083 -0.5168 2.2601
                  CHANNELS 6 Xposition Yposition Zposition Zrotation Xrotation Yrotation
                  JOINT RightHandIndex2
                  {
                    OFFSET -3.6764 0 0
                    CHANNELS 6 Xposition Yposition Zposition Zrotation Xrotation Yrotation
                    JOINT RightHandIndex3
                    {
                      OFFSET -2.8831 0 0
                      CHANNELS 6 Xposition Yposition Zposition Zrotation Xrotation Yrotation
                      End Site
                      {
                        OFFSET -2.3927 0 0
                      }
                    }
                  }
                }
                JOINT RightHandThumb1
                {
                  OFFSET -2.4648 -1.5727 2.6826
                  CHANNELS 6 Xposition Yposition Zposition Zrotation Xrotation Yrotation
                  JOINT RightHandThumb2
                  {
                    OFFSET -3.2298 -1.8647 1.8647
                    CHANNELS 6 Xposition Yposition Zposition Zrotation Xrotation Yrotation
                    JOINT RightHandThumb3
                    {
                      OFFSET -2.6526 -1.5314 1.5314
                      CHANNELS 6 Xposition Yposition Zposition Zrotation Xrotation Yrotation
                      End Site
                      {
                        OFFSET -1.9546 -1.1285 1.1285
                      }
                    }
                  }
                }
              }
            }
          }
        }
      }
    }
  }
  JOINT LeftUpLeg
  {
    OFFSET 8.2078 -6.7517 -1.5996
    CHANNELS 6 Xposition Yposition Zposition Zrotation Xrotation Yrotation
    JOINT LeftLeg
    {
      OFFSET 0 -44.3705 0.2846
      CHANNELS 6 Xposition Yposition Zposition Zrotation Xrotation Yrotation
      JOINT LeftFoot
      {
        OFFSET 0 -44.4279 -2.9822
        CHANNELS 6 Xposition Yposition Zposition Zrotation Xrotation Yrotation
        JOINT LeftToeBase
        {
          OFFSET 0 -8.7287 10.7106
          CHANNELS 6 Xposition Yposition Zposition Zrotation Xrotation Yrotation
          End Site
          {
            OFFSET 0 -0.0007 9.2781
          }
        }
      }
    }
  }
  JOINT RightUpLeg
  {
    OFFSET -8.2078 -6.7517 -1.5996
    CHANNELS 6 Xposition Yposition Zposition Zrotation Xrotation Yrotation
    JOINT RightLeg
    {
      OFFSET 0 -44.3705 0.2862
      CHANNELS 6 Xposition Yposition Zposition Zrotation Xrotation Yrotation
      JOINT RightFoot
      {
        OFFSET 0 -44.4277 -2.9838
        CHANNELS 6 Xposition Yposition Zposition Zrotation Xrotation Yrotation
        JOINT RightToeBase
        {
          OFFSET 0 -8.7287 10.7106
          CHANNELS 6 Xposition Yposition Zposition Zrotation Xrotation Yrotation
          End Site
          {
            OFFSET 0 -0.0007 9.2781
          }
        }
      }
    }
  }
}
MOTION
Frames:	4
Frame Time:	0.0333333
0.864854 99.1353 2.13189 3.31899 -0.0357344 18.2473 -8.88178e-016 10.1816 0.1315 -1.60449 -0.0256755 -0.278989 0 10.0835 -1.0008 -1.52321 0.788766 -0.69963 0 9.1 -1.3734 -1.51783 0.779253 -0.722053 8.88178e-016 16.6717 -2.5162 -2.45758 4.13127 9.69918 0 9.6179 1.685 -7.19716 0.799715 48.3502 -1.77636e-015 17.8152 2.585 -4.96962e-016 -1.56543e-015 6.36111e-015 3.0676 6.4095 9.2836 -4.96962e-016 -1.56543e-015 6.36111e-015 -3.0676 6.4095 9.2835 -4.96962e-016 -1.56543e-015 6.36111e-015 4.5704 10.946 -2.628 -11.2372 4.35208 -5.33257 10.5924 -0.5246 -2.2321 -52.2624 11.5608 -0.659325 27.8415 -0.0001 0 -0.000199276 -1.73304e-006 -35.0946 28.3288 0 0 -14.6869 12.9254 24.4127 2.4661 -1.575 2.6824 -12.2574 17.1172 17.8273 3.2298 -1.8647 1.8647 1.07157 4.11399 11.7125 2.6526 -1.5315 1.5315 3.87521 0.639609 11.0198 9.1093 -0.5171 2.2601 -55.9293 -3.0001 -0.179131 3.6764 -3.55271e-015 -1.77636e-015 -21.0058 -0.457975 2.46995 2.8831 -7.10543e-015 -1.77636e-015 -0.310787 -0.000100412 0.0373737 9.5334 0 -1.77636e-015 -41.1578 -1.70267 3.02001 3.6982 -1.33227e-015 3.55271e-015 -36.3125 -1.33934 4.0826 2.9509 7.10543e-015 3.55271e-015 -5.16306 -0.0279472 0.619885 9.1045 -0.0439 -1.8651 -40.254 -1.60754 9.46785 3.154 -1.19904e-014 0 -27.1194 -0.757857 3.14156 2.9377 0 -7.10543e-015 -5.71211 -0.0342046 0.685596 8.0778 -0.4887 -3.8061 -34.4572 -1.0945 14.3257 3.6 0 -7.10543e-015 -25.4024 1.08294 -0.767577 2.1142 -7.10543e-015 0 7.74244 -0.0627972 -0.928017 -4.57 10.9462 -2.628 6.67245 0.410923 -0.640262 -10.5928 -0.5248 -2.2321 66.7252 9.10753 -1.76345 -27.8415 -7.10543e-015 0 1.05695e-005 -1.9774e-006 13.4408 -28.3288 0 0.0001 26.98 -15.6998 -7.09239 -8.0767 -0.4885 -3.806 21.1201 -0.46612 -3.62817 -3.6 0 0.0001 23.0867 -0.556732 -2.72696 -2.1142 0 -3.55271e-015 5.81525 -0.0357969 -0.704751 -9.1036 -0.0439 -1.8651 16.3714 -0.278073 -3.92201 -3.154 -3.55271e-015 0 28.1677 -0.824398 -3.28515 -2.9377 7.10543e-015 1.77636e-015 5.81525 -0.0357948 -0.704755 -9.5325 0 0 10.1466 -0.103311 1.06561 -3.6982 -1.77636e-015 0 30.4018 -0.957274 -3.5221 -2.9509 0 8.88178e-016 16.3927 -0.28282 -1.96537 -9.1083 -0.5168 2.2601 26.0211 -0.681198 1.77435 -3.6764 -3.55271e-015 8.88178e-016 21.3062 -0.475621 -2.5281 -2.8831 0 0 5.81526 -0.0357937 -0.704753 -2.4648 -1.5727 2.6826 4.99067 0.745294 -8.07944 -3.2298 -1.8647 1.8647 -1.14781 9.87947 -26.4662 -2.6526 -1.5314 1.5314 -0.902768 -7.2226 -0.484396 8.2078 -6.7517 -1.5996 11.0848 -11.4715 10.5256 0 -44.3705 0.2846 3.31882 22.7357 -0.249616 -3.55271e-015 -44.4279 -2.9822 -15.0131 -7.39997 -0.463894 0 -8.7287 10.7106 1.03592e-006 -0.019831 -7.61223e-006 -8.2078 -6.7517 -1.5996 -17.326 1.42557 -17.1235 -3.55271e-015 -44.3705 0.2862 -1.13322 21.4088 -3.83942 0 -44.4277 -2.9838 16.5243 -15.7862 1.58386 -3.55271e-015 -8.7287 10.7106 -1.2149e-007 -0.50812 1.23839e-007 
0.863865 99.1338 2.14906 3.33286 -0.124597 18.2179 0 10.1816 0.1315 -1.61735 -0.0421485 -0.273664 0 10.0835 -1.0008 -1.54156 0.801956 -0.691064 2.22045e-016 9.1 -1.3734 -1.53596 0.792521 -0.714463 0 16.6717 -2.5162 -2.22723 4.30317 9.34476 0 9.6179 1.685 -6.98086 1.95676 46.6818 0 17.8152 2.585 4.41391e-032 -7.95139e-016 3.18055e-015 3.0676 6.4095 9.2836 4.41391e-032 -7.95139e-016 3.18055e-015 -3.0676 6.4095 9.2835 4.41391e-032 -7.95139e-016 3.18055e-015 4.5704 10.946 -2.628 -11.2309 4.34953 -5.34472 10.5924 -0.5246 -2.2321 -51.5511 12.1999 -0.549424 27.8415 -0.0001 0 -0.000203603 2.9898e-007 -35.7064 28.3288 0 -7.10543e-015 -15.8867 13.0714 24.8943 2.4661 -1.575 2.6824 -12.4773 17.6348 18.486 3.2298 -1.8647 1.8647 1.07412 4.14007 11.8634 2.6526 -1.5315 1.5315 3.87592 0.648347 11.0525 9.1093 -0.5171 2.2601 -55.0904 -2.92235 0.246896 3.6764 0 -3.55271e-015 -20.9254 -0.454514 2.46091 2.8831 0 3.55271e-015 -0.102309 -8.14241e-006 0.0122984 9.5334 0 1.77636e-015 -40.7992 -1.67565 3.57687 3.6982 9.76996e-015 3.55271e-015 -36.164 -1.32876 4.06815 2.9509 -7.10543e-015 0 -5.15081 -0.0278178 0.618422 9.1045 -0.0439 -1.8651 -39.7055 -1.55867 9.99876 3.154 2.66454e-015 -3.55271e-015 -27.1505 -0.759568 3.14489 2.9377 -7.10543e-015 0 -5.65863 -0.0335655 0.679203 8.0778 -0.4887 -3.8061 -33.6582 -1.02914 14.7572 3.6 3.55271e-015 0 -25.3255 1.08191 -0.778267 2.1142 0 0 7.63248 -0.0610314 -0.91492 -4.57 10.9462 -2.628 6.71391 0.427965 -0.52857 -10.5928 -0.5248 -2.2321 66.5414 9.09155 -1.79686 -27.8415 7.10543e-015 0 -9.05691e-006 -8.03307e-007 13.3337 -28.3288 0 0.0001 26.984 -15.73 -7.13824 -8.0767 -0.4885 -3.806 21.1122 -0.46579 -3.62407 -3.6 1.77636e-015 0.0001 23.0772 -0.556281 -2.72591 -2.1142 7.10543e-015 3.55271e-015 5.81525 -0.0357969 -0.704751 -9.1036 -0.0439 -1.8651 16.3464 -0.277183 -3.92918 -3.154 4.44089e-015 0 28.1673 -0.824374 -3.2851 -2.9377 -7.10543e-015 3.55271e-015 5.81525 -0.0357948 -0.704755 -9.5325 0 -8.88178e-016 10.1411 -0.103201 1.06623 -3.6982 6.66134e-016 -8.88178e-016 30.4064 -0.95755 -3.52258 -2.9509 -7.10543e-015 -1.77636e-015 16.3845 -0.282545 -1.96441 -9.1083 -0.5168 2.2601 26.02 -0.681178 1.77126 -3.6764 -3.55271e-015 -8.88178e-016 21.3837 -0.479048 -2.53687 -2.8831 7.10543e-015 8.88178e-016 5.81526 -0.0357937 -0.704753 -2.4648 -1.5727 2.6826 4.9971 0.756055 -8.09465 -3.2298 -1.8647 1.8647 -1.14825 9.87903 -26.464 -2.6526 -1.5314 1.5314 -0.905596 -7.22788 -0.468631 8.2078 -6.7517 -1.5996 11.0756 -11.3732 10.5035 -3.55271e-015 -44.3705 0.2846 3.37393 22.7541 -0.217236 0 -44.4279 -2.9822 -15.0559 -7.42169 -0.46921 0 -8.7287 10.7106 1.79176e-008 -0.0255643 -1.40054e-005 -8.2078 -6.7517 -1.5996 -17.3177 1.52429 -17.132 0 -44.3705 0.2862 -1.1342 21.3983 -3.77245 3.55271e-015 -44.4277 -2.9838 16.5136 -15.7986 1.58396 -3.55271e-015 -8.7287 10.7106 -1.98565e-006 -0.536122 2.38111e-007 
0.862439 99.1338 2.16968 3.355 -0.294413 18.2614 0 10.1816 0.1315 -1.66342 -0.0569001 -0.276567 4.44089e-016 10.0835 -1.0008 -1.57795 0.824428 -0.701088 0 9.1 -1.3734 -1.57193 0.814534 -0.726262 0 16.6717 -2.5162 -1.65978 4.65965 8.49803 0 9.6179 1.685 -6.50968 4.04256 42.8904 1.11022e-016 17.8152 2.585 7.95139e-016 0 3.18055e-015 3.0676 6.4095 9.2836 7.95139e-016 0 3.18055e-015 -3.0676 6.4095 9.2835 7.95139e-016 0 3.18055e-015 4.5704 10.946 -2.628 -11.2312 4.34335 -5.38341 10.5924 -0.5246 -2.2321 -50.4626 13.4728 -0.631998 27.8415 -0.0001 0 -0.000224135 8.88572e-006 -37.1097 28.3288 0 3.55271e-015 -17.1685 13.5885 26.1912 2.4661 -1.575 2.6824 -12.7074 18.1506 19.142 3.2298 -1.8647 1.8647 1.07048 4.10353 11.6516 2.6526 -1.5315 1.5315 3.87809 0.674877 11.1519 9.1093 -0.5171 2.2601 -54.2016 -2.84277 0.93878 3.6764 3.55271e-015 3.55271e-015 -21.0569 -0.460186 2.47569 2.8831 0 0 0.0455417 6.37648e-007 -0.00547778 9.5334 0 3.55271e-015 -40.5104 -1.65364 4.36694 3.6982 -3.10862e-015 3.55271e-015 -36.3541 -1.34231 4.08664 2.9509 0 3.55271e-015 -5.19891 -0.028338 0.624188 9.1045 -0.0439 -1.8651 -39.1789 -1.50984 10.6416 3.154 -3.10862e-015 -1.42109e-014 -27.3544 -0.770805 3.16671 2.9377 0 0 -5.68452 -0.0338703 0.682304 8.0778 -0.4887 -3.8061 -32.9445 -0.970268 15.1845 3.6 5.32907e-015 7.10543e-015 -25.593 1.08544 -0.741059 2.1142 3.55271e-015 7.10543e-015 7.35159 -0.0566219 -0.881445 -4.57 10.9462 -2.628 6.81099 0.449338 -0.399049 -10.5928 -0.5248 -2.2321 66.2542 9.1429 -1.81802 -27.8415 0 0 4.98527e-006 8.08295e-006 13.1978 -28.3288 -7.10543e-015 0.0001 27.0468 -15.6479 -7.23316 -8.0767 -0.4885 -3.806 21.1106 -0.46572 -3.62318 -3.6 0 0.0001 23.0674 -0.555809 -2.72481 -2.1142 0 0 5.81525 -0.0357969 -0.704751 -9.1036 -0.0439 -1.8651 16.3313 -0.276634 -3.93375 -3.154 -7.10543e-015 -1.77636e-015 28.1757 -0.824865 -3.28601 -2.9377 7.10543e-015 0 5.81525 -0.0357948 -0.704755 -9.5325 0 8.88178e-016 10.1438 -0.103236 1.06957 -3.6982 0 -1.77636e-015 30.4159 -0.958141 -3.52358 -2.9509 -7.10543e-015 -1.77636e-015 16.3771 -0.282288 -1.96355 -9.1083 -0.5168 2.2601 26.0261 -0.681566 1.76347 -3.6764 0 8.88178e-016 21.4236 -0.480819 -2.54139 -2.8831 0 0 5.81526 -0.0357937 -0.704753 -2.4648 -1.5727 2.6826 4.98851 0.774297 -8.11778 -3.2298 -1.8647 1.8647 -1.14792 9.87934 -26.4656 -2.6526 -1.5314 1.5314 -0.906317 -7.22926 -0.464482 8.2078 -6.7517 -1.5996 11.0807 -11.2153 10.4841 0 -44.3705 0.2846 3.44643 22.7825 -0.273351 0 -44.4279 -2.9822 -15.0931 -7.45002 -0.474687 -3.55271e-015 -8.7287 10.7106 -1.38184e-006 -0.034014 3.46426e-006 -8.2078 -6.7517 -1.5996 -17.28 1.75272 -17.1442 7.10543e-015 -44.3705 0.2862 -1.12265 21.3518 -3.74551 0 -44.4277 -2.9838 16.5044 -15.8094 1.58366 3.55271e-015 -8.7287 10.7106 -3.38784e-006 -0.579184 -1.27223e-006 
0.855824 99.1323 2.17972 3.39377 -0.577233 18.4606 0 10.1816 0.1315 -1.76611 -0.0653023 -0.287939 4.44089e-016 10.0835 -1.0008 -1.64891 0.862867 -0.731435 2.22045e-016 9.1 -1.3734 -1.64219 0.851645 -0.759654 8.88178e-016 16.6717 -2.5162 -0.79953 5.21652 7.08604 8.88178e-016 9.6179 1.685 -5.28008 7.18652 36.5099 0 17.8152 2.585 -1.59028e-015 2.38542e-015 -6.36111e-015 3.0676 6.4095 9.2836 -1.59028e-015 2.38542e-015 -6.36111e-015 -3.0676 6.4095 9.2835 -1.59028e-015 2.38542e-015 -6.36111e-015 4.5704 10.946 -2.628 -11.2485 4.32759 -5.4646 10.5924 -0.5246 -2.2321 -48.9664 15.598 -1.03555 27.8415 -0.0001 0 -0.000181262 -1.6882e-006 -39.9996 28.3288 0 7.10543e-015 -17.4979 14.7226 27.6626 2.4661 -1.575 2.6824 -13.055 18.365 19.4519 3.2298 -1.8647 1.8647 1.05978 4.00078 11.0548 2.6526 -1.5315 1.5315 3.88209 0.725004 11.3394 9.1093 -0.5171 2.2601 -53.6383 -2.79444 1.63899 3.6764 0 -3.55271e-015 -21.6551 -0.486397 2.54273 2.8831 0 3.55271e-015 -0.0600869 -6.35661e-007 0.00722361 9.5334 7.10543e-015 0 -40.2865 -1.63558 5.05752 3.6982 -1.55431e-015 0 -37.2398 -1.40624 4.17213 2.9509 -7.10543e-015 3.55271e-015 -5.4308 -0.0309198 0.65195 9.1045 -0.0439 -1.8651 -38.9124 -1.48341 11.075 3.154 -2.22045e-015 7.10543e-015 -27.8745 -0.799831 3.2222 2.9377 0 0 -5.93387 -0.0369101 0.712121 8.0778 -0.4887 -3.8061 -32.7867 -0.953897 15.4191 3.6 1.77636e-015 0 -26.548 1.0967 -0.608074 2.1142 -7.10543e-015 0 6.83925 -0.0490171 -0.820303 -4.57 10.9462 -2.628 6.98132 0.477407 -0.240873 -10.5928 -0.5248 -2.2321 65.869 9.28694 -1.90473 -27.8415 -7.10543e-015 0 1.65582e-005 3.26631e-006 13.1164 -28.3288 7.10543e-015 0.0001 27.1956 -15.6668 -7.18975 -8.0767 -0.4885 -3.806 21.1271 -0.466445 -3.6244 -3.6 1.77636e-015 0.0001 23.07 -0.555932 -2.72511 -2.1142 -7.10543e-015 0 5.81525 -0.0357969 -0.704751 -9.1036 -0.0439 -1.8651 16.3401 -0.276959 -3.9282 -3.154 -1.77636e-015 3.55271e-015 28.1873 -0.82552 -3.28725 -2.9377 0 3.55271e-015 5.81525 -0.0357948 -0.704755 -9.5325 -3.55271e-015 0 10.1535 -0.103413 1.07548 -3.6982 3.55271e-015 8.88178e-016 30.428 -0.958879 -3.52484 -2.9509 -7.10543e-015 0 16.3746 -0.282204 -1.96327 -9.1083 -0.5168 2.2601 26.0334 -0.682014 1.7572 -3.6764 3.55271e-015 -8.88178e-016 21.4008 -0.479808 -2.53881 -2.8831 0 0 5.81526 -0.0357937 -0.704753 -2.4648 -1.5727 2.6826 4.96272 0.790548 -8.13595 -3.2298 -1.8647 1.8647 -1.14895 9.87842 -26.461 -2.6526 -1.5314 1.5314 -0.904019 -7.22489 -0.477605 8.2078 -6.7517 -1.5996 11.1038 -11.0056 10.4731 3.55271e-015 -44.3705 0.2846 3.55045 22.8385 -0.530651 0 -44.4279 -2.9822 -15.1111 -7.48629 -0.47959 0 -8.7287 10.7106 7.98927e-006 -0.0430622 4.61388e-006 -8.2078 -6.7517 -1.5996 -17.1954 2.15406 -17.1605 -3.55271e-015 -44.3705 0.2862 -1.10146 21.2903 -3.8335 0 -44.4277 -2.9838 16.5134 -15.8268 1.587 3.55271e-015 -8.7287 10.7106 -3.80257e-006 -0.635996 -3.21256e-013 
